<?xml version="1.0" encoding="utf-8"?>
<!-- Generator: Adobe Illustrator 19.0.0, SVG Export Plug-In . SVG Version: 6.00 Build 0)  -->
<svg version="1.1" id="Layer_1" xmlns="http://www.w3.org/2000/svg" xmlns:xlink="http://www.w3.org/1999/xlink" x="0px" y="0px"
	 viewBox="0 0 66.5 560" style="enable-background:new 0 0 66.5 560;" xml:space="preserve">
<style type="text/css">
	.st0{fill:none;stroke:#000000;stroke-width:4;stroke-miterlimit:10;}
	.st1{fill:none;stroke:#000000;stroke-width:2;stroke-miterlimit:10;}
	.st2{fill:none;stroke:#000000;stroke-width:2;stroke-miterlimit:10;stroke-dasharray:12,12;}
	.st3{fill:none;}
	.st4{fill:none;stroke:#000000;stroke-miterlimit:10;}
	.st5{fill:none;stroke:#000000;stroke-miterlimit:10;stroke-dasharray:8,8;}
</style>
<path id="XMLID_4_" d="M-1036.4,280.7c2.2-2.1,4.2-4.7,6.7-6.2c30.3-17.6,60.6-35.1,91-52.6c1.2-0.7,2.5-1.5,3.8-2
	c3.6-1.4,7.7-0.1,9.7,3c2.1,3.3,1.6,7.7-1.2,10.4c-1.2,1.1-2.7,2.1-4.2,2.9c-20.6,11.9-41.2,23.8-61.8,35.7
	c-1.1,0.6-2.1,1.3-3.1,2.8c1.6,0,3.2,0,4.8,0c114.7,0,229.5,0,344.2,0c5.2,0,9.5,0.9,12.1,6c0,1.6,0,3.1,0,4.7
	c-2.5,5-6.9,6-12.1,5.9c-114.7-0.1-229.5-0.1-344.2-0.1c-1.6,0-3.2,0-4.8,0c0,0.3-0.1,0.6-0.1,0.9c1.1,0.7,2.1,1.3,3.2,2
	c20.8,12,41.6,24.1,62.5,36.1c3,1.7,5.7,3.7,6,7.6c0.4,6-4.8,10.3-10.5,8.4c-1.4-0.4-2.6-1.1-3.9-1.8c-30.6-17.6-61.2-35.2-91.7-53
	c-2.5-1.4-4.3-4-6.4-6C-1036.4,283.9-1036.4,282.3-1036.4,280.7z"/>
<g id="XMLID_2_">
	<g id="XMLID_28_">
		<line id="XMLID_31_" class="st0" x1="-1014" y1="421" x2="-797" y2="421"/>
		<g id="XMLID_29_">
			<path id="XMLID_30_" d="M-1038,421c11.4,4.2,25.5,11.4,34.2,19l-6.9-19l6.9-19C-1012.5,409.6-1026.6,416.8-1038,421z"/>
		</g>
	</g>
</g>
<path id="XMLID_5_" d="M-699.8,98.2c-1.8,1.6-3.3,3.7-5.3,4.9c-23.8,13.9-47.6,27.6-71.5,41.3c-1,0.6-2,1.1-3,1.5
	c-2.9,1.1-6.1,0.1-7.6-2.4c-1.6-2.6-1.3-6.1,1-8.2c1-0.9,2.1-1.6,3.3-2.3c16.2-9.4,32.4-18.7,48.5-28.1c0.9-0.5,1.7-1,2.4-2.2
	c-1.3,0-2.5,0-3.8,0c-90.1,0-180.3,0-270.4,0c-4.1,0-7.5-0.7-9.5-4.7c0-1.2,0-2.5,0-3.7c2-3.9,5.4-4.7,9.5-4.7
	c90.1,0.1,180.3,0,270.4,0c1.3,0,2.5,0,3.8,0c0-0.2,0.1-0.5,0.1-0.7c-0.8-0.5-1.7-1.1-2.5-1.5c-16.4-9.5-32.7-18.9-49.1-28.3
	c-2.4-1.4-4.5-2.9-4.7-6c-0.3-4.7,3.8-8.1,8.3-6.6c1.1,0.3,2.1,0.9,3,1.4c24,13.8,48,27.7,72,41.6c1.9,1.1,3.4,3.1,5,4.7
	C-699.8,95.7-699.8,96.9-699.8,98.2z"/>
<g id="XMLID_18_">
	<g id="XMLID_34_">
		<line id="XMLID_37_" class="st0" x1="-927" y1="487" x2="-710" y2="487"/>
		<g id="XMLID_35_">
			<path id="XMLID_36_" d="M-686,487c-11.4,4.2-25.5,11.4-34.2,19l6.9-19l-6.9-19C-711.5,475.6-697.4,482.8-686,487z"/>
		</g>
	</g>
</g>
<g id="XMLID_19_">
	<g id="XMLID_39_">
		<line id="XMLID_42_" class="st1" x1="-997" y1="190" x2="-991" y2="190"/>
		<line id="XMLID_41_" class="st2" x1="-979" y1="190" x2="-679" y2="190"/>
		<line id="XMLID_40_" class="st1" x1="-673" y1="190" x2="-667" y2="190"/>
	</g>
</g>
<line id="XMLID_1_" class="st3" x1="-1130" y1="56" x2="-1130" y2="506"/>
<g id="XMLID_3_">
	<g id="XMLID_16_">
		<line id="XMLID_21_" class="st4" x1="-1097.5" y1="69" x2="-1097.5" y2="73"/>
		<line id="XMLID_20_" class="st5" x1="-1097.5" y1="81" x2="-1097.5" y2="493"/>
		<line id="XMLID_17_" class="st4" x1="-1097.5" y1="497" x2="-1097.5" y2="501"/>
	</g>
</g>
<g id="XMLID_6_">
	<g id="XMLID_24_">
		<line id="XMLID_32_" class="st4" x1="-1128.5" y1="35" x2="-1128.5" y2="39"/>
		<line id="XMLID_26_" class="st5" x1="-1128.5" y1="47" x2="-1128.5" y2="459"/>
		<line id="XMLID_25_" class="st4" x1="-1128.5" y1="463" x2="-1128.5" y2="467"/>
	</g>
</g>
<path id="XMLID_80_" d="M-456.4,280.7c2.2-2.1,4.2-4.7,6.7-6.2c30.3-17.6,60.6-35.1,91-52.6c1.2-0.7,2.5-1.5,3.8-2
	c3.6-1.4,7.7-0.1,9.7,3c2.1,3.3,1.6,7.7-1.2,10.4c-1.2,1.1-2.7,2.1-4.2,2.9c-20.6,11.9-41.2,23.8-61.8,35.7
	c-1.1,0.6-2.1,1.3-3.1,2.8c1.6,0,3.2,0,4.8,0c114.7,0,229.5,0,344.2,0c5.2,0,9.5,0.9,12.1,6c0,1.6,0,3.1,0,4.7
	c-2.5,5-6.9,6-12.1,5.9c-114.7-0.1-229.5-0.1-344.2-0.1c-1.6,0-3.2,0-4.8,0c0,0.3-0.1,0.6-0.1,0.9c1.1,0.7,2.1,1.3,3.2,2
	c20.8,12,41.6,24.1,62.5,36.1c3,1.7,5.7,3.7,6,7.6c0.4,6-4.8,10.3-10.5,8.4c-1.4-0.4-2.6-1.1-3.9-1.8c-30.6-17.6-61.2-35.2-91.7-53
	c-2.5-1.4-4.3-4-6.4-6C-456.4,283.9-456.4,282.3-456.4,280.7z"/>
<g id="XMLID_74_">
	<g id="XMLID_111_">
		<line id="XMLID_114_" class="st0" x1="-434" y1="421" x2="-217" y2="421"/>
		<g id="XMLID_112_">
			<path id="XMLID_113_" d="M-458,421c11.4,4.2,25.5,11.4,34.2,19l-6.9-19l6.9-19C-432.5,409.6-446.6,416.8-458,421z"/>
		</g>
	</g>
</g>
<path id="XMLID_73_" d="M-119.8,98.2c-1.8,1.6-3.3,3.7-5.3,4.9c-23.8,13.9-47.6,27.6-71.5,41.3c-1,0.6-2,1.1-3,1.5
	c-2.9,1.1-6.1,0.1-7.6-2.4c-1.6-2.6-1.3-6.1,1-8.2c1-0.9,2.1-1.6,3.3-2.3c16.2-9.4,32.4-18.7,48.5-28.1c0.9-0.5,1.7-1,2.4-2.2
	c-1.3,0-2.5,0-3.8,0c-90.1,0-180.3,0-270.4,0c-4.1,0-7.5-0.7-9.5-4.7c0-1.2,0-2.5,0-3.7c2-3.9,5.4-4.7,9.5-4.7
	c90.1,0.1,180.3,0,270.4,0c1.3,0,2.5,0,3.8,0c0-0.2,0.1-0.5,0.1-0.7c-0.8-0.5-1.7-1.1-2.5-1.5c-16.4-9.5-32.7-18.9-49.1-28.3
	c-2.4-1.4-4.5-2.9-4.7-6c-0.3-4.7,3.8-8.1,8.3-6.6c1.1,0.3,2.1,0.9,3,1.4c24,13.8,48,27.7,72,41.6c1.9,1.1,3.4,3.1,5,4.7
	C-119.8,95.7-119.8,96.9-119.8,98.2z"/>
<g id="XMLID_67_">
	<g id="XMLID_106_">
		<line id="XMLID_109_" class="st0" x1="-347" y1="487" x2="-130" y2="487"/>
		<g id="XMLID_107_">
			<path id="XMLID_108_" d="M-106,487c-11.4,4.2-25.5,11.4-34.2,19l6.9-19l-6.9-19C-131.5,475.6-117.4,482.8-106,487z"/>
		</g>
	</g>
</g>
<g id="XMLID_61_">
	<g id="XMLID_101_">
		<line id="XMLID_104_" class="st1" x1="-417" y1="190" x2="-411" y2="190"/>
		<line id="XMLID_103_" class="st2" x1="-399" y1="190" x2="-99" y2="190"/>
		<line id="XMLID_102_" class="st1" x1="-93" y1="190" x2="-87" y2="190"/>
	</g>
</g>
<line id="XMLID_60_" class="st3" x1="-550" y1="56" x2="-550" y2="506"/>
<g id="XMLID_54_">
	<g id="XMLID_96_">
		<line id="XMLID_99_" class="st4" x1="-517.5" y1="69" x2="-517.5" y2="73"/>
		<line id="XMLID_98_" class="st5" x1="-517.5" y1="81" x2="-517.5" y2="493"/>
		<line id="XMLID_97_" class="st4" x1="-517.5" y1="497" x2="-517.5" y2="501"/>
	</g>
</g>
<g id="XMLID_48_">
	<g id="XMLID_91_">
		<line id="XMLID_94_" class="st4" x1="-548.5" y1="35" x2="-548.5" y2="39"/>
		<line id="XMLID_93_" class="st5" x1="-548.5" y1="47" x2="-548.5" y2="459"/>
		<line id="XMLID_92_" class="st4" x1="-548.5" y1="463" x2="-548.5" y2="467"/>
	</g>
</g>
<path id="XMLID_219_" d="M805.1,294.7c2.2-2.1,4.2-4.7,6.7-6.2c30.3-17.6,60.6-35.1,91-52.6c1.2-0.7,2.5-1.5,3.8-2
	c3.6-1.4,7.7-0.1,9.7,3c2.1,3.3,1.6,7.7-1.2,10.4c-1.2,1.1-2.7,2.1-4.2,2.9c-20.6,11.9-41.2,23.8-61.8,35.7
	c-1.1,0.6-2.1,1.3-3.1,2.8c1.6,0,3.2,0,4.8,0c114.7,0,229.5,0,344.2,0c5.2,0,9.5,0.9,12.1,6c0,1.6,0,3.1,0,4.7
	c-2.5,5-6.9,6-12.1,5.9c-114.7-0.1-229.5-0.1-344.2-0.1c-1.6,0-3.2,0-4.8,0c0,0.3-0.1,0.6-0.1,0.9c1.1,0.7,2.1,1.3,3.2,2
	c20.8,12,41.6,24.1,62.5,36.1c3,1.7,5.7,3.7,6,7.6c0.4,6-4.8,10.3-10.5,8.4c-1.4-0.4-2.6-1.1-3.9-1.8c-30.6-17.6-61.2-35.2-91.7-53
	c-2.5-1.4-4.3-4-6.4-6C805.1,297.9,805.1,296.3,805.1,294.7z"/>
<g id="XMLID_213_">
	<g id="XMLID_218_">
		<line id="XMLID_222_" class="st0" x1="131" y1="121" x2="627" y2="121"/>
		<g id="XMLID_220_">
			<path id="XMLID_221_" d="M106.6,121c11.4,4.2,25.5,11.4,34.2,19l-6.9-19l6.9-19C132,109.6,117.9,116.8,106.6,121z"/>
		</g>
	</g>
</g>
<path id="XMLID_212_" d="M1141.7,112.2c-1.8,1.6-3.3,3.7-5.3,4.9c-23.8,13.9-47.6,27.6-71.5,41.3c-1,0.6-2,1.1-3,1.5
	c-2.9,1.1-6.1,0.1-7.6-2.4c-1.6-2.6-1.3-6.1,1-8.2c1-0.9,2.1-1.6,3.3-2.3c16.2-9.4,32.4-18.7,48.5-28.1c0.9-0.5,1.7-1,2.4-2.2
	c-1.3,0-2.5,0-3.8,0c-90.1,0-180.3,0-270.4,0c-4.1,0-7.5-0.7-9.5-4.7c0-1.2,0-2.5,0-3.7c2-3.9,5.4-4.7,9.5-4.7
	c90.1,0.1,180.3,0,270.4,0c1.3,0,2.5,0,3.8,0c0-0.2,0.1-0.5,0.1-0.7c-0.8-0.5-1.7-1.1-2.5-1.5c-16.4-9.5-32.7-18.9-49.1-28.3
	c-2.4-1.4-4.5-2.9-4.7-6c-0.3-4.7,3.8-8.1,8.3-6.6c1.1,0.3,2.1,0.9,3,1.4c24,13.8,48,27.7,72,41.6c1.9,1.1,3.4,3.1,5,4.7
	C1141.7,109.7,1141.7,110.9,1141.7,112.2z"/>
<g id="XMLID_206_">
	<g id="XMLID_224_">
		<line id="XMLID_227_" class="st0" x1="107" y1="487" x2="602" y2="487"/>
		<g id="XMLID_225_">
			<path id="XMLID_226_" d="M626.5,487c-11.4,4.2-25.5,11.4-34.2,19l6.9-19l-6.9-19C601.1,475.6,615.2,482.8,626.5,487z"/>
		</g>
	</g>
</g>
<g id="XMLID_200_">
	<g id="XMLID_211_">
		<line id="XMLID_216_" class="st1" x1="845" y1="204" x2="851" y2="204"/>
		<line id="XMLID_215_" class="st2" x1="862" y1="204" x2="1163" y2="204"/>
		<line id="XMLID_214_" class="st1" x1="1169" y1="204" x2="1175" y2="204"/>
	</g>
</g>
<line id="XMLID_119_" class="st3" x1="30" y1="56" x2="30" y2="506"/>
<g id="XMLID_82_">
	<g id="XMLID_154_">
		<line id="XMLID_157_" class="st4" x1="31.5" y1="35" x2="31.5" y2="39"/>
		<line id="XMLID_156_" class="st5" x1="31.5" y1="47" x2="31.5" y2="459"/>
		<line id="XMLID_155_" class="st4" x1="31.5" y1="463" x2="31.5" y2="467"/>
	</g>
</g>
</svg>
